<svg width="168" height="265" viewBox="0 0 168 265" fill="none" xmlns="http://www.w3.org/2000/svg">
<path d="M73.467 260.979C74.742 257.637 76.7343 254.616 79.3035 252.13C81.8727 249.644 84.9563 247.753 88.3369 246.59C90.5868 245.812 92.7255 244.626 94.9051 243.641C92.9086 242.708 90.7459 242.185 88.5451 242.104C83.3391 241.918 78.4105 239.696 74.8188 235.914C74.1177 234.855 73.6482 233.66 73.4412 232.407C73.2343 231.154 73.2946 229.872 73.6181 228.645C74.2709 226.258 77.0946 227.332 78.8895 228.082C84.7107 230.401 91.0981 232.072 96.1009 235.633C102.656 240.381 109.806 240.371 117.041 241.279C105.517 236.245 95.8494 227.733 89.3907 216.934C87.9299 214.403 86.3175 214.441 84.0235 215.443C78.5634 217.78 72.3991 217.864 66.8706 215.677C61.342 213.491 56.896 209.209 54.499 203.764C53.9659 202.584 53.7343 200.51 54.4118 199.796C54.9977 199.415 55.6564 199.161 56.3462 199.049C57.036 198.936 57.7417 198.969 58.4187 199.145C62.1611 199.837 65.8546 200.83 69.5608 201.716L70.2478 201.791L69.6391 201.423C69.025 200.635 68.3503 199.897 67.6212 199.214C62.7597 194.88 59.2797 189.211 57.6157 182.914C57.4265 181.469 57.4936 180.003 57.8141 178.582C59.015 178.732 60.395 178.506 61.3768 179.006C68.1903 182.205 74.1796 186.929 78.8816 192.812C77.8949 188.633 77.2226 184.386 76.8702 180.107C76.7983 173.713 74.7558 167.494 71.0216 162.3C69.0021 158.682 67.169 154.963 65.5296 151.158C65.0248 150.283 63.5126 149.122 62.7737 149.301C48.4353 152.816 37.1384 144.53 24.9781 139.594C22.3996 138.602 22.4769 136.077 25.075 134.701C27.2271 133.507 29.5962 132.754 32.0436 132.488C41.6172 131.891 51.164 134.07 59.5389 138.765C57.8437 133.642 55.9519 129.078 54.8282 124.344C53.3369 117.987 52.8482 111.522 55.9643 105.382C57.4158 102.534 59.61 101.789 61.414 103.798C63.7098 106.186 65.6371 108.902 67.1321 111.858C69.0865 116.106 70.1683 120.702 70.3133 125.374C70.4583 130.046 69.6635 134.698 67.9761 139.054C67.1726 141.042 66.9031 143.208 67.1945 145.334C68.7269 152.006 71.6218 158.291 75.6969 163.793C76.901 156.871 77.9055 150.462 79.2353 144.187C81.7608 132.802 85.979 121.863 91.7493 111.735C92.4904 110.643 92.8781 109.35 92.8598 108.029C92.8415 106.709 92.4181 105.425 91.6471 104.352C89.568 101.137 87.8125 97.7103 85.7891 94.4631C80.9153 86.5361 75.5868 79.194 65.0623 78.7216C64.7282 78.6866 64.4017 78.5988 64.095 78.4615C57.5598 76.3429 52.055 71.8448 48.6721 65.8593C47.1684 63.2547 48.2921 61.3408 51.2473 61.0981C52.2377 61.1288 53.2211 61.2772 54.1768 61.5401C61.9714 63.1173 69.3845 65.5349 74.9768 70.889C75.2971 66.6235 75.8838 62.3826 76.7336 58.1912C77.1692 56.501 79.5688 55.3388 81.089 53.9402C82.5143 55.1349 83.7095 56.5802 84.6158 58.2046C86.9754 65.7228 87.235 73.1635 82.7611 80.2116C82.4622 80.8485 82.3167 81.5469 82.3361 82.2508C82.3554 82.9546 82.5392 83.6444 82.8727 84.2649C86.684 90.5232 90.7075 96.6342 94.7495 102.735C94.9321 103.051 96.6159 102.922 96.7079 102.695C98.8086 96.7694 101.761 90.9468 102.573 84.8472C104.039 73.5328 98.1132 64.8985 90.028 57.5853C78.4642 47.1209 56.8304 40.6595 41.8017 51.6432C40.0842 52.8061 38.7413 54.4431 37.9357 56.3559C36.4822 60.0447 34.4372 63.4708 31.8812 66.4994C27.1658 71.334 22.1984 75.9159 16.9999 80.2259C15.8873 81.2155 13.7487 82.4007 12.8469 81.9539C12.1141 81.4791 11.4851 80.8602 10.9983 80.1349C10.5114 79.4096 10.1768 78.5931 10.0148 77.7349C9.59162 75.0183 9.77244 72.2427 10.5444 69.6059C11.3163 66.9692 12.6604 64.5363 14.4806 62.4808C18.2079 57.6994 23.5611 55.4769 28.8763 53.1027L29.1177 52.9633L28.8763 53.1027L22.9133 53.1967C19.0064 53.3166 15.125 52.5129 11.5839 50.8508C8.04279 49.1887 4.94182 46.715 2.53261 43.6305C-1.05668 39.1293 0.375313 36.1196 6.04433 35.7737C10.2099 35.4249 14.4007 35.4987 18.5527 35.9937C26.67 37.1862 34.1298 39.8993 37.7712 48.265C38.6224 50.2541 39.7066 49.4297 40.8659 48.7356C53.2359 41.296 65.9758 41.5312 78.9715 46.9272C81.3076 47.8854 83.6281 48.9022 85.9378 49.9004C85.557 49.2405 85.0903 48.6341 84.5499 48.0971C75.5578 40.8858 66.7545 33.1438 54.897 30.6628C45.8341 28.776 39.9599 22.4188 34.8511 15.3716C33.897 14.062 34.4433 11.6629 34.2898 9.7671C35.8612 9.6295 37.4441 9.69075 39.0009 9.94941C48.3602 12.6191 57.0282 17.299 64.4006 23.6627C64.2383 21.6231 64.032 19.8074 63.9399 17.9753C63.484 12.6162 65.0536 7.28398 68.3382 3.03302C71.5052 -1.00317 75.2664 -0.793348 76.5593 3.71907C78.163 9.26439 79.1634 14.9661 79.543 20.7248C79.7373 22.9887 79.3668 25.2647 78.465 27.3484C77.5632 29.432 76.1581 31.2581 74.3761 32.6628C71.7572 34.6461 72.4869 35.2667 74.6675 36.5131C76.717 37.6051 78.6354 38.9277 80.3855 40.4551C84.417 44.0819 88.233 47.9417 91.8139 52.0148C94.4584 55.4987 96.8849 59.143 99.0796 62.9266C99.6557 60.3315 99.9267 57.6775 99.8873 55.0185C100.697 44.9264 105.09 41.2985 111.779 39.0737C115.483 37.8535 116.729 39.0687 116.44 42.8572C115.479 52.5158 112.979 61.5248 104.957 67.9175C103.757 68.8834 103.336 69.399 104.042 71.0504C105.631 74.551 106.481 78.3411 106.539 82.1833C106.597 86.0255 105.862 89.8371 104.379 93.3795C101.181 101.179 97.4528 108.789 93.6949 116.391C89.6271 124.05 86.6844 132.257 84.9575 140.759C87.737 139.362 90.3162 137.598 92.6262 135.513C98.7432 129.724 104.387 123.415 110.803 117.974C112.601 116.684 113.956 114.868 114.681 112.775C115.405 110.682 115.465 108.415 114.851 106.285C113.822 101.265 113.27 96.1601 113.205 91.0376C113.254 88.2015 113.864 85.4041 114.999 82.8069C116.135 80.2098 117.774 77.8643 119.821 75.9061C122.5 73.1688 124.85 73.7221 126.185 77.1929C126.503 78.1352 126.738 79.103 126.89 80.0855C128.627 89.3464 127.645 98.9087 124.063 107.615L129.132 105.929C135.106 103.967 141.123 102.851 146.998 105.908C147.834 106.292 148.579 106.851 149.182 107.547C149.784 108.243 150.231 109.06 150.492 109.943C150.3 110.871 149.905 111.745 149.336 112.502C148.768 113.259 148.039 113.881 147.202 114.323C143.29 116.517 138.98 117.91 134.524 118.422C130.067 118.935 125.551 118.555 121.239 117.307C119.932 116.82 118.51 116.741 117.158 117.079C115.806 117.416 114.588 118.156 113.665 119.199C107.849 125.038 102.033 130.876 96.0646 136.579C92.9743 139.505 90.0451 142.709 85.4137 143.522C84.7646 143.788 84.1908 144.21 83.7426 144.75C83.2945 145.29 82.9856 145.931 82.8432 146.619C81.9039 155.843 80.3822 165.131 80.6722 174.34C81.0161 191.056 86.6714 207.237 96.818 220.534C100.382 225.248 108.341 231.915 112.633 233.257C111.775 230.999 110.78 228.547 109.907 226.049C108.872 222.254 106.446 218.987 103.114 216.899C98.7886 214.313 95.4343 210.373 93.5714 205.689C91.8328 201.434 91.0569 197.045 93.2351 192.711C95.3007 188.74 98.1622 188.378 100.035 192.308C102.294 197.089 104.249 202.009 105.889 207.036C106.937 210.053 107.448 213.255 108.204 216.366L109.281 216.215C109.214 214.468 109.223 212.727 109.089 210.993C108.389 201.674 113.159 197.283 120.171 193.259C121.88 192.272 123.864 192.02 123.747 195.163C123.655 204.568 122.24 213.397 113.801 219.411C113.269 219.844 112.843 220.392 112.555 221.014C112.266 221.636 112.122 222.316 112.135 223.002C113.818 232.994 119.37 238.322 129.307 239.878C130.947 240.152 132.608 240.273 134.269 240.238C161.44 239.434 180.691 226.285 192.402 202.135C196.701 193.795 198.251 184.304 196.83 175.021C196.031 170.248 193.909 166.314 189.41 164.57C183.416 162.251 177.148 160.487 170.968 158.747C169.862 158.418 168.219 159.391 167.042 160.096C161.563 163.259 156.417 166.999 150.857 169.936C145.298 172.873 139.141 174.046 133.356 170.118C131.602 168.923 128.725 167.458 129.874 164.687C131.023 163.025 132.712 161.813 134.654 161.257C141.142 158.727 147.714 156.471 154.054 154.199C151.088 151.422 148.359 149.053 145.916 146.495C145.607 146.037 145.411 145.512 145.344 144.964C145.277 144.416 145.342 143.86 145.532 143.343C145.833 142.747 147.486 142.438 148.44 142.631C156.804 144.252 165.092 146.04 170.261 153.921C170.866 154.72 171.715 155.301 172.678 155.576C179.142 157.55 185.636 159.406 192.273 161.379C187.345 154.302 182.008 147.461 174.602 142.782C169.415 139.501 164.013 136.493 157.687 136.002C145.902 135.018 135.479 138.753 125.887 145.258C125.552 145.562 125.282 145.93 125.093 146.342C124.905 146.753 124.803 147.199 124.793 147.652C124.724 154.265 121.32 159.306 117.281 164.02C113.242 168.733 109.432 172.942 105.38 177.29C104.307 178.18 103.121 178.923 101.852 179.501C100.998 178.196 100.368 176.757 99.9886 175.243C99.4804 167.185 102.145 159.253 107.413 153.147C107.844 152.65 108.336 152.216 108.738 151.711C109.14 151.207 109.237 150.903 109.071 151.172C104.716 151.007 100.286 151.01 95.8873 150.598C95.2894 150.422 94.7412 150.108 94.2875 149.68C93.8339 149.252 93.4877 148.723 93.2773 148.136C93.0528 147.447 94.0776 145.962 94.9476 145.41C98.0039 143.112 101.328 141.193 104.846 139.695C110.337 137.84 116.101 136.67 121.31 141.104C121.769 141.337 122.274 141.465 122.788 141.481C123.302 141.497 123.813 141.4 124.286 141.197C127.042 140.052 129.685 138.626 132.395 137.358C142.39 132.754 152.688 130.603 163.651 133.378C162.82 132.369 162.02 131.368 161.171 130.37C158.717 127.761 156.886 124.629 155.818 121.211C154.749 117.793 154.471 114.177 155.004 110.638C155.486 107.655 156.921 106.926 158.847 108.716C166.63 115.308 171.827 124.447 173.513 134.506C173.614 135.661 173.984 136.778 174.593 137.766C175.202 138.754 176.033 139.586 177.021 140.195C186.114 146.852 193.612 154.777 197.684 165.648C200.555 173.375 201.502 181.683 200.442 189.853C202.794 184.278 204.937 178.725 206.706 173.04C207.766 169.6 209.732 165.414 208.608 162.565C207.655 160.015 203.209 158.662 200.212 156.945C191.828 152.16 187.478 145.097 188.01 135.339C188.125 132.965 187.764 129.552 190.78 129.2C192.336 129.021 194.65 131.356 195.926 133.051C199.943 138.421 203.647 144.022 207.693 149.872C207.12 146.204 207.796 142.451 209.611 139.217C211.426 135.983 214.275 133.454 217.701 132.038C218.944 131.445 221.194 130.667 221.667 131.187C222.555 132.429 222.974 133.945 222.85 135.465C222.186 144.952 218.334 153.378 214.312 161.852C212.069 166.545 210.496 171.497 208.604 176.285C212.091 174.818 214.62 172.936 217.377 171.493C220.059 169.987 223.015 169.032 226.073 168.686C229.13 168.339 232.226 168.607 235.18 169.475C235.762 169.694 236.291 170.033 236.735 170.469C237.178 170.905 237.526 171.428 237.756 172.006C237.98 172.695 236.976 174.044 236.203 174.763C234.597 176.219 232.881 177.549 231.072 178.743C225.526 182.391 219.918 186.745 212.918 185.9C207.067 185.16 204.523 187.1 202.474 192.302C200.672 196.815 196.971 200.44 194.908 204.93C188.773 218.246 178.538 229.241 165.7 236.305C150.243 244.659 133.275 246.021 116.056 244.676C112.92 244.319 109.808 243.771 106.739 243.035C104.424 242.586 103.009 242.708 102.133 245.694C100.914 248.863 99.1231 251.781 96.85 254.301C91.2818 260.74 82.65 260.887 75.4221 263.894C73.2102 264.824 72.5201 263.114 73.467 260.979ZM71.4889 206.085C67.4399 204.776 63.202 203.998 58.2568 202.81C62.5283 211.581 74.672 216.402 83.0404 213.183C83.5667 212.857 84.0297 212.438 84.4072 211.947C83.9631 211.493 83.4608 211.099 82.9135 210.776C79.0307 209.197 75.3171 207.397 71.396 206.139L71.4889 206.085ZM61.1134 182.581C64.5093 193.396 71.8116 199.052 80.9278 204.034C77.341 193.875 70.3565 187.911 61.0205 182.635L61.1134 182.581ZM61.4835 107.95C60.9185 107.212 60.1057 106.703 59.1955 106.518C58.876 106.479 58.121 107.659 57.8216 108.427C55.5064 115.568 56.9662 122.515 59.33 129.311C60.4944 132.657 62.0917 135.853 63.8831 140.028C69.0236 128.13 67.9933 117.81 61.4014 108.022L61.4835 107.95ZM74.8858 75.4066C68.9219 68.6795 61.2414 65.4985 52.0042 64.382C52.9223 66.5005 54.2573 68.4127 55.9294 70.0045C57.6014 71.5963 59.5763 72.835 61.7361 73.6468C65.5339 75.2494 69.542 76.3585 73.4708 77.5878C74.2484 77.7057 75.0395 77.701 75.8152 77.5738C75.5669 76.8045 75.1916 76.0821 74.705 75.4365L74.8858 75.4066ZM82.7828 73.1294C84.2235 67.9944 83.7016 62.5035 81.3189 57.7268C80.2596 59.9981 79.4691 62.3858 78.9636 64.8415C78.8964 67.6464 79.1602 70.4499 79.7495 73.1939C80.0414 74.4951 80.4241 75.7745 80.895 77.0223C81.5896 75.7942 82.1614 74.5003 82.602 73.1594L82.7828 73.1294ZM16.8756 65.0421C15.3137 67.8956 14.0753 70.9152 13.1836 74.0449C12.846 75.1328 13.5265 76.526 13.738 77.793L17.0984 76.1505C23.1175 70.9638 29.9974 66.0243 33.9937 58.2349C34.506 57.3992 34.8821 56.4871 35.108 55.5327C35.1619 55.1543 33.7757 54.1686 33.6271 54.2544C27.9526 58.1507 20.4413 58.8657 16.6948 65.0721L16.8756 65.0421ZM26.2577 41.3187C19.907 38.511 13.0918 38.5016 6.28631 38.8091C5.5224 38.9656 4.78943 39.2463 4.11651 39.6401C4.33911 40.5114 4.7011 41.3412 5.18842 42.0972C8.87178 46.436 14.113 49.1496 19.776 49.65C23.6731 49.8806 27.7033 49.6127 31.6404 49.8697C35.5775 50.1268 34.7318 48.705 33.5711 46.0512C31.2145 44.2681 28.7069 42.6946 26.0769 41.3486L26.2577 41.3187ZM63.1889 28.0832C59.6287 24.9199 55.8839 21.9712 51.9743 19.2528C48.2415 17.0838 44.3617 15.1793 40.3635 13.5533C39.5868 13.3411 38.7849 13.2366 37.9801 13.2425L38.3416 15.7129C42.0341 20.7377 47.1023 24.5845 52.9315 26.7867C55.9595 27.7424 58.8869 28.7809 61.8855 29.7287C62.3503 29.8039 62.8232 29.8147 63.2908 29.7607C63.2666 29.2042 63.3793 28.3701 63.0452 28.0917L63.1889 28.0832ZM71.1666 31.0926C73.2428 29.037 74.8939 26.5919 76.0256 23.8967C77.9408 17.6065 75.562 11.5133 74.0431 5.49425C73.148 3.2576 71.5658 3.47653 70.797 5.06146C69.0231 8.01257 67.85 11.2863 67.3451 14.6946C67.4477 19.8046 67.9082 24.9017 68.723 29.9484C68.7359 31.9006 69.8565 32.4691 71.0229 31.1011L71.1666 31.0926ZM86.1624 50.118C86.3021 50.3599 86.5717 50.5267 86.7856 50.7256C86.7212 50.614 86.7946 50.398 86.7545 50.3715C86.5633 50.2733 86.3654 50.1886 86.1624 50.118ZM104.927 64.0902C108.743 59.705 111.355 54.4019 112.508 48.6994C112.691 47.8927 112.806 47.0716 112.849 46.2451C112.919 44.8652 112.875 43.5017 112.934 42.1031L107.662 43.1374C105.907 46.0638 104.472 49.1712 103.381 52.4061C102.831 55.9988 102.659 59.6398 102.868 63.2695C102.932 63.8462 103.09 64.4088 103.335 64.9351C103.916 64.7612 104.457 64.474 104.927 64.0902ZM144.704 111.97C145.504 111.441 146.269 110.859 146.991 110.228C146.086 109.56 145.185 108.343 144.281 108.32C140.058 108.075 135.821 108.252 131.635 108.849C128.045 109.922 124.564 111.333 121.241 113.064L121.686 114.221C129.491 115.172 137.314 116.113 144.682 111.933L144.704 111.97ZM122.119 103.776C124.736 96.0715 125.278 87.8102 123.692 79.823C123.216 78.7537 122.629 77.7373 121.941 76.7905C120.185 79.8925 118.589 83.0828 117.159 86.3486C115.043 92.0349 116.345 97.8071 117.325 103.493C117.69 105.539 118.291 107.524 118.788 109.544C120.078 107.731 121.193 105.8 122.119 103.776ZM59.2891 142.407C51.6754 137.635 42.8079 135.262 33.8374 135.595C31.7676 135.699 29.7338 136.079 27.6727 136.327C37.1155 141.144 46.1816 146.725 57.0854 146.954C57.4146 147 57.7495 146.983 58.0724 146.905C59.687 146.27 61.2695 145.58 62.8626 144.908C61.7039 143.986 60.4966 143.126 59.2461 142.333L59.2891 142.407ZM114.635 214.638C116.657 212.484 118.226 209.946 119.25 207.174C120.273 204.401 120.731 201.45 120.595 198.496C120.599 198.246 119.199 197.665 118.731 197.885C117.064 198.608 115.613 199.752 114.521 201.204C113.428 202.657 112.731 204.369 112.497 206.173C112.285 209.104 112.271 212.045 112.455 214.978C113.466 214.842 114.299 214.956 114.689 214.731L114.635 214.638ZM149.369 159.509C144.831 160.913 140.38 162.64 135.894 164.262C135.165 164.564 134.457 164.914 133.776 165.312C134.223 166.12 134.821 166.836 135.538 167.42C137.751 168.546 140.219 169.073 142.697 168.948C145.176 168.823 147.577 168.05 149.662 166.707C155.041 163.8 160.248 160.595 165.596 157.507C159.798 155.398 154.613 157.87 149.369 159.509ZM151.385 145.545L150.79 146.831C154.656 150.652 159.033 153.259 164.692 152.895L165.215 151.699L151.385 145.545ZM116.78 142.008C111.176 140.407 106.086 142.229 100.45 144.689L98.5997 147.147C99.6843 147.438 100.872 148.166 101.858 147.944C106.948 146.767 111.997 145.39 117.046 144.013C117.485 143.795 117.873 143.487 118.183 143.108C117.718 142.732 117.308 142.15 116.78 142.008ZM116.641 149.53C108.949 155.336 102.982 162.973 103.507 174.304C110.043 167.181 117.052 161.522 120.632 153.055C121.216 151.206 121.629 149.308 121.864 147.383C120.03 147.855 118.262 148.552 116.598 149.456L116.641 149.53ZM158.201 112.016C157.48 120.718 161.203 127.251 170.674 134.433C168.566 125.961 164.247 118.199 158.158 111.942L158.201 112.016ZM215.745 151.424C217.413 146.592 218.725 141.617 220.107 136.677C220.171 135.881 220.109 135.079 219.925 134.302L218.032 134.799C212.638 138.88 209.971 143.868 210.908 150.422C211.264 152.97 211.783 155.498 212.235 158.04C213.598 155.943 214.772 153.729 215.745 151.424ZM193.449 134.853C192.932 134.373 192.384 133.927 191.811 133.516C191.501 134.086 191.279 134.699 191.153 135.335C191.013 141.741 192.573 147.488 198.007 151.495C200.55 153.327 203.232 154.928 206.535 157.089C204.159 148.646 199.65 140.955 193.444 134.757L193.449 134.853ZM210.349 183.166C216.654 183.966 221.855 181.137 226.793 177.765C229.077 176.446 231.362 175.127 233.646 173.808C234.021 173.53 234.357 173.203 234.644 172.835C234.166 172.54 233.655 172.302 233.121 172.127C228.583 171.053 223.808 171.813 219.832 174.243C216.266 176.302 212.891 178.648 209.461 180.9C208.967 181.335 208.529 181.83 208.157 182.373C208.855 182.692 209.589 182.926 210.343 183.07L210.349 183.166ZM104.205 211.283C102.332 206.237 100.477 201.181 98.5194 196.16C98.0534 195.366 97.465 194.651 96.776 194.041C96.1782 194.938 95.7287 195.926 95.4447 196.967C94.8427 203.516 98.2991 208.045 102.713 212.045L104.205 211.283ZM77.1469 230.725C76.6937 231.172 76.3576 231.724 76.168 232.332C78.0689 234.038 79.8513 236.481 82.1113 237.136C86.6475 238.234 91.2489 239.041 95.8871 239.552C90.8265 234.089 83.8234 232.724 77.1097 230.746L77.1469 230.725ZM96.7069 239.599L96.3053 239.633L96.3805 239.763C96.3805 239.763 96.5955 239.663 96.6698 239.621L96.7069 239.599ZM98.568 245.396C91.531 249.806 82.4543 250.383 78.0726 258.792C88.6601 258.087 96.402 253.096 98.5308 245.417L98.568 245.396Z" fill="black" fill-opacity="0.1"/>
</svg>
